PathFileType	4	(X/Y/Z)	Walk1.trc
DataRate	CameraRate	NumFrames	NumMarkers	Units	OrigDataRate	OrigDataStartFrame	OrigNumFrames
200.000000	200.000000	4	69	mm	200.000000	536	577
Frame#	Times		LFHD		RFHD		RBHD		C7		CLAV		STRN		RBack		LASI		RASI		RACR1		RUA1		RFA1		RWRU		LACR1		LUA1		LElbow		LWRU		RTH3		RTH2		RTH4		RLFC		RMT5		LTH3		LTH2		LTH4		LLFC		LTB1		LTB3		LTB2		LTB4		LLMAL		LMMAL		LMT1		LMT5		LToe		LowerBodyModelVer		PELOrigin		LFA1		LTH1		LBHD		RElbow		RPSI		LCAR		LPSI		RCAL		LHJC		MidPelvis		OPelvis		RHJC		SACR		XPelvis		YPelvis		ZPelvis		RTH1		RMT1		RElbowM		RToe		RLMAL		RCAR		LWRR		RTB2		RTB1		RWRR		RTB3		RTB4		RMMAL		T10		LCAL		LElbowM
			X1	Y1	Z1	X2	Y2	Z2	X3	Y3	Z3	X4	Y4	Z4	X5	Y5	Z5	X6	Y6	Z6	X7	Y7	Z7	X8	Y8	Z8	X9	Y9	Z9	X10	Y10	Z10	X11	Y11	Z11	X12	Y12	Z12	X13	Y13	Z13	X14	Y14	Z14	X15	Y15	Z15	X16	Y16	Z16	X17	Y17	Z17	X18	Y18	Z18	X19	Y19	Z19	X20	Y20	Z20	X21	Y21	Z21	X22	Y22	Z22	X23	Y23	Z23	X24	Y24	Z24	X25	Y25	Z25	X26	Y26	Z26	X27	Y27	Z27	X28	Y28	Z28	X29	Y29	Z29	X30	Y30	Z30	X31	Y31	Z31	X32	Y32	Z32	X33	Y33	Z33	X34	Y34	Z34	X35	Y35	Z35	X36	Y36	Z36	X37	Y37	Z37	X38	Y38	Z38	X39	Y39	Z39	X40	Y40	Z40	X41	Y41	Z41	X42	Y42	Z42	X43	Y43	Z43	X44	Y44	Z44	X45	Y45	Z45	X46	Y46	Z46	X47	Y47	Z47	X48	Y48	Z48	X49	Y49	Z49	X50	Y50	Z50	X51	Y51	Z51	X52	Y52	Z52	X53	Y53	Z53	X54	Y54	Z54	X55	Y55	Z55	X56	Y56	Z56	X57	Y57	Z57	X58	Y58	Z58	X59	Y59	Z59	X60	Y60	Z60	X61	Y61	Z61	X62	Y62	Z62	X63	Y63	Z63	X64	Y64	Z64	X65	Y65	Z65	X66	Y66	Z66	X67	Y67	Z67	X68	Y68	Z68	X69	Y69	Z69

536	2.68	909.79	1544.1	-91.018	905.85	1542.8	6.9739	740.84	1584.7	9.1825	662.49	1422.8	-49.629	816.62	1337.9	-49.53	876.32	1221.8	-32.98	594.28	1327.7	47.049	814.12	953.42	-202.06	801.66	970.84	153.5	733.28	1388.4	124.95	682.63	1254.6	220.5	678.72	961.57	278.49	650.94	858.43	311.26	754.1	1354.2	-231.31	736.87	1204.7	-303.93	681.63	1062.4	-336.93	743.4	826.4	-386.77	788.51	570.91	196.91	827.56	668.98	196.36	769.33	655.72	205.12	801.85	484.5	192.69	735.39	49.946	190.14	736.4	558.38	-181.74	799.18	642.16	-179.24	748.06	640.57	-209.85	700.98	487.44	-169.51	717.13	333.74	-67.116	691.42	164.13	-73.908	700.52	253.15	-134.17	701.38	249.44	-70.567	641.52	70.244	-132.64	653.49	74.335	-47.953	777.89	35.417	-57.698	757.32	26.344	-147.85	822.33	30.493	-61.852	9	2014	4	807.89	962.13	-24.28	749.13	945.64	-357.48	763.58	719.55	-237.53	761.13	1570.4	-124.63	626.4	1095	260.18	555.08	986.62	4.0691	791.48	790.27	-384.92	575.18	987.3	-129.2	588.19	104.74	103.32	717.98	851.81	-143.36	686.51	974.55	-43.422	807.89	962.13	-24.28	709.51	863.65	98.426	565.13	986.96	-62.563	887.37	953.58	-21.077	816.58	1041.6	-27.867	805.09	966.04	55.575	760.67	739.36	218.31	768.16	49.882	110.87	593.24	1080.3	174.62	804.95	40.112	130	639.77	125.86	159.91	685.55	799.04	294.95	790	833.82	-335.82	757.75	304.65	181.2	831.04	361.4	128.36	689.66	855.05	247.24	732.29	208.11	99.161	781.66	284.75	113.76	679.11	125.56	83.439	591.54	1091.9	-46.94	585.8	30.706	-92.069	664.25	1028.8	-235.81
537	2.685	913.96	1543.6	-91.162	909.92	1542.4	6.8314	744.91	1584.3	8.8731	666.6	1422.4	-50.22	820.63	1337.4	-49.656	880.22	1221.2	-32.478	598.21	1327.5	46.386	817.83	952.84	-202.4	805.58	970.83	153.53	737.18	1388	124.53	686.4	1254.3	220.11	682.08	961.38	278.31	654.12	858.33	311.27	758.75	1353.9	-231.51	741.94	1204.4	-304.47	687.45	1061.9	-337.77	751.82	826.68	-387.52	794.36	570.97	196.28	832.73	669.31	195.76	774.61	655.66	204.58	808.34	484.43	191.93	751.82	48.563	190.82	738.25	558.29	-181.61	802.27	641.09	-178.09	751.61	640.28	-209.5	701.91	487.53	-169.6	717.59	333.69	-67.203	691.64	164.15	-74.069	700.73	253.23	-134.33	701.68	249.45	-70.75	641.51	70.304	-132.69	653.57	74.435	-47.997	777.93	35.484	-57.748	757.34	26.294	-147.96	822.35	30.484	-61.921	9	2014	4	811.71	961.83	-24.437	756.19	945.88	-358.11	768.75	718.99	-236.99	765.33	1570	-124.91	630	1094.9	259.91	558.89	986.36	3.7234	800.27	791.02	-385.5	578.98	986.98	-129.46	603.52	99.252	103.38	721.59	851.23	-143.42	690.32	974.25	-43.652	811.71	961.83	-24.437	713.27	863.47	98.619	568.93	986.67	-62.866	891.18	953.26	-21.269	820.42	1041.3	-28.153	808.96	965.87	55.414	765.28	739.24	217.85	784.89	49.104	111.74	596.68	1080.1	174.4	821.87	40.355	130.96	654.43	121.8	160.04	688.68	798.92	295.1	797.75	834.28	-335.5	768.04	303.61	180.92	839.92	361.91	127.88	692.82	854.8	247.26	745.12	206.15	99.126	792.52	284.03	113.5	694.07	122.28	83.645	595.39	1091.7	-47.488	585.86	30.762	-92.052	669.9	1028.1	-236.78
538	2.69	918.13	1543.2	-91.278	913.98	1541.9	6.7175	748.98	1583.8	8.5988	670.7	1422.1	-50.781	824.65	1336.9	-49.747	884.09	1220.6	-31.969	602.15	1327.2	45.753	821.53	952.26	-202.75	809.52	970.8	153.57	741.06	1387.6	124.15	690.18	1253.9	219.75	685.48	961.16	278.16	657.37	858.2	311.3	763.39	1353.4	-231.68	747.04	1204	-304.99	693.26	1061.4	-338.6	760.22	826.94	-388.23	800.14	570.96	195.64	837.85	669.55	195.14	779.84	655.53	204.04	814.7	484.28	191.12	768.36	47.29	191.58	740.1	558.2	-181.52	805.32	640.03	-177.01	755.1	639.98	-209.17	702.91	487.62	-169.69	718.06	333.65	-67.25	691.85	164.18	-74.214	701	253.29	-134.46	701.97	249.47	-70.943	641.52	70.366	-132.75	653.64	74.542	-48.057	777.95	35.55	-57.801	757.35	26.239	-148.07	822.36	30.477	-61.985	9	2014	4	815.52	961.53	-24.587	763.23	946.1	-358.72	773.82	718.41	-236.45	769.52	1569.6	-125.17	633.62	1094.7	259.68	562.7	986.04	3.4164	809.04	791.75	-386.03	582.78	986.62	-129.68	619.08	93.817	103.51	725.22	850.64	-143.48	694.13	973.93	-43.859	815.52	961.53	-24.587	717.05	863.25	98.822	572.74	986.33	-63.131	895	952.95	-21.462	824.25	1041	-28.427	812.83	965.68	55.259	769.88	739.04	217.38	801.73	48.442	112.68	600.14	1079.9	174.22	838.87	40.731	132.02	669.27	117.79	160.23	691.87	798.76	295.27	805.44	834.69	-335.06	778.34	302.56	180.62	848.73	362.42	127.35	696.03	854.53	247.29	758.04	204.23	99.112	803.38	283.33	113.23	709.2	119.06	83.904	599.24	1091.4	-47.994	585.9	30.828	-92.048	675.56	1027.4	-237.73
539	2.695	922.3	1542.7	-91.365	918.05	1541.4	6.6328	753.05	1583.3	8.3599	674.82	1421.7	-51.306	828.66	1336.4	-49.805	887.93	1220	-31.458	606.08	1326.9	45.153	825.22	951.69	-203.09	813.46	970.74	153.62	744.93	1387.2	123.82	693.96	1253.5	219.42	688.94	960.91	278.04	660.68	858.04	311.36	768.02	1353	-231.83	752.18	1203.7	-305.49	699.08	1060.9	-339.41	768.59	827.19	-388.89	805.83	570.88	194.98	842.91	669.7	194.49	785.03	655.34	203.5	820.94	484.05	190.28	785.02	46.146	192.41	741.96	558.09	-181.46	808.32	638.97	-176.01	758.52	639.67	-208.87	703.98	487.71	-169.78	718.56	333.59	-67.258	692.08	164.2	-74.344	701.33	253.36	-134.56	702.26	249.49	-71.134	641.53	70.432	-132.83	653.71	74.658	-48.133	777.97	35.614	-57.854	757.36	26.179	-148.18	822.36	30.47	-62.043	9	2014	4	819.34	961.21	-24.733	770.26	946.3	-359.31	778.74	717.81	-235.93	773.72	1569.1	-125.39	637.26	1094.4	259.49	566.53	985.66	3.1515	817.77	792.46	-386.49	586.57	986.21	-129.86	634.87	88.462	103.73	728.86	850.03	-143.54	697.95	973.58	-44.044	819.34	961.21	-24.733	720.86	862.98	99.029	576.55	985.94	-63.354	898.82	952.65	-21.655	828.06	1040.6	-28.689	816.71	965.48	55.11	774.45	738.79	216.92	818.69	47.916	113.68	603.63	1079.7	174.08	855.93	41.26	133.16	684.3	113.85	160.5	695.12	798.57	295.45	813.07	835.07	-334.53	788.66	301.51	180.29	857.46	362.92	126.79	699.29	854.22	247.34	771.04	202.37	99.114	814.25	282.64	112.95	724.5	115.92	84.21	603.09	1091	-48.457	585.94	30.903	-92.059	681.22	1026.7	-238.66
